<svg width="24px" height="24px" viewBox="0 0 24 24" fill="none" xmlns="http://www.w3.org/2000/svg">
<path d="M18.11 22.71H5.9C5.1936 22.71 4.51599 22.4301 4.01555 21.9315C3.51511 21.433 3.23264 20.7564 3.23 20.05V4.00001C3.22469 3.64603 3.28984 3.29453 3.42164 2.96596C3.55345 2.63739 3.74928 2.33831 3.99774 2.08612C4.2462 1.83394 4.54233 1.63368 4.86891 1.49701C5.19548 1.36033 5.54598 1.28997 5.9 1.29001H18.11C18.4636 1.28995 18.8136 1.36037 19.1396 1.49716C19.4656 1.63396 19.7611 1.83437 20.0088 2.0867C20.2565 2.33902 20.4514 2.63819 20.5821 2.96671C20.7127 3.29523 20.7766 3.64651 20.77 4.00001V20.1C20.7569 20.7968 20.4709 21.4606 19.9734 21.9487C19.476 22.4368 18.8069 22.7101 18.11 22.71ZM5.9 2.79001C5.74252 2.7885 5.58639 2.81908 5.44112 2.87987C5.29585 2.94066 5.16447 3.0304 5.05501 3.14361C4.94554 3.25682 4.86027 3.39114 4.80439 3.53837C4.74851 3.68561 4.7232 3.84267 4.73 4.00001V20.1C4.74295 20.4007 4.87223 20.6845 5.09054 20.8916C5.30885 21.0987 5.59909 21.2129 5.9 21.21H18.11C18.4177 21.21 18.7127 21.0878 18.9302 20.8703C19.1478 20.6527 19.27 20.3577 19.27 20.05V4.00001C19.27 3.69236 19.1478 3.39731 18.9302 3.17976C18.7127 2.96222 18.4177 2.84001 18.11 2.84001L5.9 2.79001Z" fill="black"/>
<path d="M20 12.75H14.47C14.2711 12.75 14.0803 12.671 13.9397 12.5303C13.799 12.3897 13.72 12.1989 13.72 12C13.72 11.8011 13.799 11.6103 13.9397 11.4697C14.0803 11.329 14.2711 11.25 14.47 11.25H20C20.1989 11.25 20.3897 11.329 20.5303 11.4697C20.671 11.6103 20.75 11.8011 20.75 12C20.75 12.1989 20.671 12.3897 20.5303 12.5303C20.3897 12.671 20.1989 12.75 20 12.75Z" fill="black"/>
<path d="M9.54 12.75H4C3.80109 12.75 3.61032 12.671 3.46967 12.5303C3.32902 12.3897 3.25 12.1989 3.25 12C3.25 11.8011 3.32902 11.6103 3.46967 11.4697C3.61032 11.329 3.80109 11.25 4 11.25H9.54C9.73891 11.25 9.92968 11.329 10.0703 11.4697C10.211 11.6103 10.29 11.8011 10.29 12C10.29 12.1989 10.211 12.3897 10.0703 12.5303C9.92968 12.671 9.73891 12.75 9.54 12.75Z" fill="black"/>
<path d="M15.36 6.13001H8.64C8.44189 6.12742 8.25263 6.04757 8.11253 5.90747C7.97244 5.76738 7.89259 5.57811 7.89 5.38001V2.00001C7.89 1.8011 7.96902 1.61033 8.10967 1.46968C8.25032 1.32903 8.44109 1.25001 8.64 1.25001H15.36C15.4589 1.24866 15.557 1.26714 15.6486 1.30436C15.7402 1.34157 15.8234 1.39677 15.8933 1.46668C15.9632 1.53659 16.0184 1.61981 16.0557 1.71141C16.0929 1.80301 16.1113 1.90114 16.11 2.00001V5.38001C16.11 5.57892 16.031 5.76969 15.8903 5.91034C15.7497 6.05099 15.5589 6.13001 15.36 6.13001ZM9.36 4.63001H14.58V2.79001H9.39L9.36 4.63001Z" fill="black"/>
<path d="M15.36 22.71H8.64C8.44783 22.7103 8.26288 22.6368 8.12332 22.5047C7.98377 22.3726 7.90025 22.1919 7.89 22V18.62C7.89259 18.4219 7.97244 18.2326 8.11253 18.0925C8.25263 17.9524 8.44189 17.8726 8.64 17.87H15.36C15.5589 17.87 15.7497 17.949 15.8903 18.0897C16.031 18.2303 16.11 18.4211 16.11 18.62V22C16.1022 22.1928 16.0194 22.3749 15.8793 22.5075C15.7392 22.6401 15.5529 22.7128 15.36 22.71ZM9.36 21.21H14.58V19.37H9.39L9.36 21.21Z" fill="black"/>
<path d="M12 15.15C11.3627 15.15 10.7398 14.9609 10.21 14.6066C9.68029 14.2524 9.26758 13.7489 9.02416 13.1599C8.78075 12.571 8.71757 11.923 8.84262 11.2981C8.96768 10.6732 9.27535 10.0995 9.72667 9.64959C10.178 9.19966 10.7527 8.89378 11.378 8.77066C12.0032 8.64755 12.651 8.71275 13.2392 8.958C13.8274 9.20324 14.3296 9.61752 14.6822 10.1484C15.0348 10.6792 15.222 11.3027 15.22 11.94C15.2174 12.7923 14.8769 13.6087 14.2734 14.2104C13.6698 14.8121 12.8523 15.15 12 15.15ZM12 10.22C11.6598 10.22 11.3273 10.3209 11.0444 10.5099C10.7616 10.6989 10.5411 10.9675 10.4109 11.2818C10.2807 11.5961 10.2467 11.9419 10.313 12.2756C10.3794 12.6092 10.5432 12.9157 10.7838 13.1562C11.0243 13.3968 11.3308 13.5606 11.6644 13.627C11.9981 13.6933 12.3439 13.6593 12.6582 13.5291C12.9725 13.3989 13.2411 13.1784 13.4301 12.8956C13.6191 12.6127 13.72 12.2802 13.72 11.94C13.72 11.4838 13.5388 11.0463 13.2162 10.7238C12.8937 10.4012 12.4562 10.22 12 10.22Z" fill="black"/>
</svg>
